<mxfile host="app.diagrams.net" modified="2024-04-28T09:07:14.969Z" agent="Mozilla/5.0 (X11; Linux x86_64; rv:125.0) Gecko/20100101 Firefox/125.0" version="24.3.1" etag="MYxGG6E72bDYiyq0RBic" type="github">
  <diagram name="Page-1" id="0x4NLX6OeQmf0CVjupw_">
    <mxGraphModel>
      <root>
        <mxCell id="0" />
        <mxCell id="1" parent="0" />
      </root>
    </mxGraphModel>
  </diagram>
</mxfile>
